<svg class="marks" width="757" height="265" viewBox="0 0 757 265" version="1.1" xmlns="http://www.w3.org/2000/svg" xmlns:xlink="http://www.w3.org/1999/xlink"><defs><linearGradient id="gradient_0" x1="0" x2="0" y1="1" y2="0"><stop offset="0" stop-color="rgb(0, 104, 55)"></stop><stop offset="0.04999999999999999" stop-color="rgb(17, 127, 67)"></stop><stop offset="0.09999999999999998" stop-color="rgb(34, 150, 79)"></stop><stop offset="0.15000000000000002" stop-color="rgb(67, 169, 88)"></stop><stop offset="0.2" stop-color="rgb(100, 188, 97)"></stop><stop offset="0.25" stop-color="rgb(132, 202, 104)"></stop><stop offset="0.3" stop-color="rgb(164, 216, 110)"></stop><stop offset="0.35" stop-color="rgb(190, 227, 126)"></stop><stop offset="0.4" stop-color="rgb(215, 238, 142)"></stop><stop offset="0.45" stop-color="rgb(232, 243, 158)"></stop><stop offset="0.5" stop-color="rgb(249, 247, 174)"></stop><stop offset="0.55" stop-color="rgb(252, 234, 158)"></stop><stop offset="0.6" stop-color="rgb(254, 221, 141)"></stop><stop offset="0.65" stop-color="rgb(253, 197, 120)"></stop><stop offset="0.7" stop-color="rgb(252, 172, 99)"></stop><stop offset="0.75" stop-color="rgb(247, 141, 83)"></stop><stop offset="0.8" stop-color="rgb(241, 110, 67)"></stop><stop offset="0.85" stop-color="rgb(227, 80, 56)"></stop><stop offset="0.9" stop-color="rgb(212, 50, 44)"></stop><stop offset="0.95" stop-color="rgb(189, 25, 41)"></stop><stop offset="1" stop-color="rgb(165, 0, 38)"></stop></linearGradient></defs><g transform="translate(99,22)"><g class="mark-group role-frame root"><g transform="translate(0,0)"><path class="background" d="M0.5,0.5h600v200h-600Z" style="fill: none; stroke: #ddd;"></path><g><g class="mark-rect role-mark marks"><path d="M0,114.28571428571429h25v28.571428571428573h-25Z" style="fill: rgb(249, 247, 173);"></path><path d="M25,114.28571428571429h25v28.571428571428573h-25Z" style="fill: rgb(249, 247, 174);"></path><path d="M50,114.28571428571429h25v28.571428571428573h-25Z" style="fill: rgb(248, 247, 173);"></path><path d="M75,114.28571428571429h25v28.571428571428573h-25Z" style="fill: rgb(248, 247, 173);"></path><path d="M100,114.28571428571429h25v28.571428571428573h-25Z" style="fill: rgb(247, 246, 172);"></path><path d="M125,114.28571428571429h25v28.571428571428573h-25Z" style="fill: rgb(246, 246, 172);"></path><path d="M150,114.28571428571429h25v28.571428571428573h-25Z" style="fill: rgb(246, 246, 171);"></path><path d="M175,114.28571428571429h25v28.571428571428573h-25Z" style="fill: rgb(245, 246, 170);"></path><path d="M200,114.28571428571429h25v28.571428571428573h-25Z" style="fill: rgb(245, 246, 170);"></path><path d="M225,114.28571428571429h25v28.571428571428573h-25Z" style="fill: rgb(244, 246, 170);"></path><path d="M250,114.28571428571429h25v28.571428571428573h-25Z" style="fill: rgb(244, 246, 169);"></path><path d="M275,114.28571428571429h25v28.571428571428573h-25Z" style="fill: rgb(243, 245, 169);"></path><path d="M300,114.28571428571429h25v28.571428571428573h-25Z" style="fill: rgb(251, 168, 97);"></path><path d="M325,114.28571428571429h25v28.571428571428573h-25Z" style="fill: rgb(252, 182, 107);"></path><path d="M350,114.28571428571429h25v28.571428571428573h-25Z" style="fill: rgb(250, 162, 94);"></path><path d="M375,114.28571428571429h25v28.571428571428573h-25Z" style="fill: rgb(253, 196, 119);"></path><path d="M400,114.28571428571429h25v28.571428571428573h-25Z" style="fill: rgb(253, 197, 120);"></path><path d="M425,114.28571428571429h25v28.571428571428573h-25Z" style="fill: rgb(253, 198, 121);"></path><path d="M450,114.28571428571429h25v28.571428571428573h-25Z" style="fill: rgb(253, 199, 122);"></path><path d="M475,114.28571428571429h25v28.571428571428573h-25Z" style="fill: rgb(253, 200, 123);"></path><path d="M500,114.28571428571429h25v28.571428571428573h-25Z" style="fill: rgb(253, 201, 124);"></path><path d="M525,114.28571428571429h25v28.571428571428573h-25Z" style="fill: rgb(253, 208, 130);"></path><path d="M550,114.28571428571429h25v28.571428571428573h-25Z" style="fill: rgb(254, 209, 131);"></path><path d="M575,114.28571428571429h25v28.571428571428573h-25Z" style="fill: rgb(254, 210, 132);"></path><path d="M0,0h25v28.571428571428573h-25Z" style="fill: rgb(124, 199, 102);"></path><path d="M25,0h25v28.571428571428573h-25Z" style="fill: rgb(123, 198, 102);"></path><path d="M50,0h25v28.571428571428573h-25Z" style="fill: rgb(122, 198, 101);"></path><path d="M75,0h25v28.571428571428573h-25Z" style="fill: rgb(121, 197, 101);"></path><path d="M100,0h25v28.571428571428573h-25Z" style="fill: rgb(119, 196, 101);"></path><path d="M125,0h25v28.571428571428573h-25Z" style="fill: rgb(118, 196, 101);"></path><path d="M150,0h25v28.571428571428573h-25Z" style="fill: rgb(117, 195, 100);"></path><path d="M175,0h25v28.571428571428573h-25Z" style="fill: rgb(116, 195, 100);"></path><path d="M200,0h25v28.571428571428573h-25Z" style="fill: rgb(115, 195, 100);"></path><path d="M225,0h25v28.571428571428573h-25Z" style="fill: rgb(114, 194, 100);"></path><path d="M250,0h25v28.571428571428573h-25Z" style="fill: rgb(113, 194, 100);"></path><path d="M275,0h25v28.571428571428573h-25Z" style="fill: rgb(85, 179, 93);"></path><path d="M300,0h25v28.571428571428573h-25Z" style="fill: rgb(252, 234, 157);"></path><path d="M325,0h25v28.571428571428573h-25Z" style="fill: rgb(251, 234, 158);"></path><path d="M350,0h25v28.571428571428573h-25Z" style="fill: rgb(251, 235, 158);"></path><path d="M375,0h25v28.571428571428573h-25Z" style="fill: rgb(251, 235, 159);"></path><path d="M400,0h25v28.571428571428573h-25Z" style="fill: rgb(251, 235, 159);"></path><path d="M425,0h25v28.571428571428573h-25Z" style="fill: rgb(251, 236, 160);"></path><path d="M450,0h25v28.571428571428573h-25Z" style="fill: rgb(251, 236, 160);"></path><path d="M475,0h25v28.571428571428573h-25Z" style="fill: rgb(251, 236, 161);"></path><path d="M500,0h25v28.571428571428573h-25Z" style="fill: rgb(251, 237, 161);"></path><path d="M525,0h25v28.571428571428573h-25Z" style="fill: rgb(251, 237, 162);"></path><path d="M550,0h25v28.571428571428573h-25Z" style="fill: rgb(251, 238, 162);"></path><path d="M575,0h25v28.571428571428573h-25Z" style="fill: rgb(251, 238, 163);"></path><path d="M0,142.85714285714286h25v28.571428571428573h-25Z" style="fill: rgb(254, 212, 133);"></path><path d="M25,142.85714285714286h25v28.571428571428573h-25Z" style="fill: rgb(254, 213, 134);"></path><path d="M50,142.85714285714286h25v28.571428571428573h-25Z" style="fill: rgb(254, 214, 135);"></path><path d="M75,142.85714285714286h25v28.571428571428573h-25Z" style="fill: rgb(254, 215, 136);"></path><path d="M100,142.85714285714286h25v28.571428571428573h-25Z" style="fill: rgb(254, 216, 137);"></path><path d="M125,142.85714285714286h25v28.571428571428573h-25Z" style="fill: rgb(254, 217, 138);"></path><path d="M150,142.85714285714286h25v28.571428571428573h-25Z" style="fill: rgb(254, 218, 138);"></path><path d="M175,142.85714285714286h25v28.571428571428573h-25Z" style="fill: rgb(254, 219, 139);"></path><path d="M200,142.85714285714286h25v28.571428571428573h-25Z" style="fill: rgb(254, 220, 140);"></path><path d="M225,142.85714285714286h25v28.571428571428573h-25Z" style="fill: rgb(254, 221, 141);"></path><path d="M250,142.85714285714286h25v28.571428571428573h-25Z" style="fill: rgb(253, 227, 149);"></path><path d="M275,142.85714285714286h25v28.571428571428573h-25Z" style="fill: rgb(251, 236, 160);"></path><path d="M300,142.85714285714286h25v28.571428571428573h-25Z" style="fill: rgb(251, 236, 161);"></path><path d="M325,142.85714285714286h25v28.571428571428573h-25Z" style="fill: rgb(251, 237, 161);"></path><path d="M350,142.85714285714286h25v28.571428571428573h-25Z" style="fill: rgb(251, 237, 161);"></path><path d="M375,142.85714285714286h25v28.571428571428573h-25Z" style="fill: rgb(251, 238, 162);"></path><path d="M400,142.85714285714286h25v28.571428571428573h-25Z" style="fill: rgb(251, 238, 162);"></path><path d="M425,142.85714285714286h25v28.571428571428573h-25Z" style="fill: rgb(251, 238, 163);"></path><path d="M450,142.85714285714286h25v28.571428571428573h-25Z" style="fill: rgb(250, 241, 166);"></path><path d="M475,142.85714285714286h25v28.571428571428573h-25Z" style="fill: rgb(250, 241, 167);"></path><path d="M500,142.85714285714286h25v28.571428571428573h-25Z" style="fill: rgb(250, 242, 167);"></path><path d="M525,142.85714285714286h25v28.571428571428573h-25Z" style="fill: rgb(250, 242, 168);"></path><path d="M550,142.85714285714286h25v28.571428571428573h-25Z" style="fill: rgb(250, 242, 168);"></path><path d="M575,142.85714285714286h25v28.571428571428573h-25Z" style="fill: rgb(250, 243, 169);"></path><path d="M0,171.42857142857144h25v28.571428571428573h-25Z" style="fill: rgb(250, 243, 169);"></path><path d="M25,171.42857142857144h25v28.571428571428573h-25Z" style="fill: rgb(250, 243, 170);"></path><path d="M50,171.42857142857144h25v28.571428571428573h-25Z" style="fill: rgb(250, 244, 170);"></path><path d="M75,171.42857142857144h25v28.571428571428573h-25Z" style="fill: rgb(250, 244, 171);"></path><path d="M100,171.42857142857144h25v28.571428571428573h-25Z" style="fill: rgb(249, 245, 171);"></path><path d="M125,171.42857142857144h25v28.571428571428573h-25Z" style="fill: rgb(249, 245, 172);"></path><path d="M150,171.42857142857144h25v28.571428571428573h-25Z" style="fill: rgb(249, 245, 172);"></path><path d="M175,171.42857142857144h25v28.571428571428573h-25Z" style="fill: rgb(249, 246, 172);"></path><path d="M200,171.42857142857144h25v28.571428571428573h-25Z" style="fill: rgb(249, 246, 173);"></path><path d="M225,171.42857142857144h25v28.571428571428573h-25Z" style="fill: rgb(249, 247, 173);"></path><path d="M250,171.42857142857144h25v28.571428571428573h-25Z" style="fill: rgb(235, 243, 161);"></path><path d="M275,171.42857142857144h25v28.571428571428573h-25Z" style="fill: rgb(206, 234, 136);"></path><path d="M300,171.42857142857144h25v28.571428571428573h-25Z" style="fill: rgb(205, 234, 136);"></path><path d="M325,171.42857142857144h25v28.571428571428573h-25Z" style="fill: rgb(179, 222, 119);"></path><path d="M350,171.42857142857144h25v28.571428571428573h-25Z" style="fill: rgb(155, 212, 108);"></path><path d="M375,171.42857142857144h25v28.571428571428573h-25Z" style="fill: rgb(154, 212, 108);"></path><path d="M400,171.42857142857144h25v28.571428571428573h-25Z" style="fill: rgb(148, 209, 107);"></path><path d="M425,171.42857142857144h25v28.571428571428573h-25Z" style="fill: rgb(147, 208, 106);"></path><path d="M450,171.42857142857144h25v28.571428571428573h-25Z" style="fill: rgb(140, 206, 105);"></path><path d="M475,171.42857142857144h25v28.571428571428573h-25Z" style="fill: rgb(139, 205, 105);"></path><path d="M500,171.42857142857144h25v28.571428571428573h-25Z" style="fill: rgb(128, 200, 103);"></path><path d="M525,171.42857142857144h25v28.571428571428573h-25Z" style="fill: rgb(127, 200, 102);"></path><path d="M550,171.42857142857144h25v28.571428571428573h-25Z" style="fill: rgb(126, 199, 102);"></path><path d="M575,171.42857142857144h25v28.571428571428573h-25Z" style="fill: rgb(125, 199, 102);"></path><path d="M0,85.71428571428572h25v28.571428571428573h-25Z" style="fill: rgb(251, 236, 160);"></path><path d="M25,85.71428571428572h25v28.571428571428573h-25Z" style="fill: rgb(251, 236, 161);"></path><path d="M50,85.71428571428572h25v28.571428571428573h-25Z" style="fill: rgb(251, 237, 161);"></path><path d="M75,85.71428571428572h25v28.571428571428573h-25Z" style="fill: rgb(251, 237, 162);"></path><path d="M100,85.71428571428572h25v28.571428571428573h-25Z" style="fill: rgb(251, 238, 162);"></path><path d="M125,85.71428571428572h25v28.571428571428573h-25Z" style="fill: rgb(251, 238, 163);"></path><path d="M150,85.71428571428572h25v28.571428571428573h-25Z" style="fill: rgb(251, 239, 164);"></path><path d="M175,85.71428571428572h25v28.571428571428573h-25Z" style="fill: rgb(251, 239, 164);"></path><path d="M200,85.71428571428572h25v28.571428571428573h-25Z" style="fill: rgb(250, 240, 165);"></path><path d="M225,85.71428571428572h25v28.571428571428573h-25Z" style="fill: rgb(250, 240, 165);"></path><path d="M250,85.71428571428572h25v28.571428571428573h-25Z" style="fill: rgb(215, 238, 142);"></path><path d="M275,85.71428571428572h25v28.571428571428573h-25Z" style="fill: rgb(214, 238, 141);"></path><path d="M300,85.71428571428572h25v28.571428571428573h-25Z" style="fill: rgb(253, 226, 148);"></path><path d="M325,85.71428571428572h25v28.571428571428573h-25Z" style="fill: rgb(253, 227, 148);"></path><path d="M350,85.71428571428572h25v28.571428571428573h-25Z" style="fill: rgb(253, 227, 149);"></path><path d="M375,85.71428571428572h25v28.571428571428573h-25Z" style="fill: rgb(253, 228, 149);"></path><path d="M400,85.71428571428572h25v28.571428571428573h-25Z" style="fill: rgb(253, 228, 150);"></path><path d="M425,85.71428571428572h25v28.571428571428573h-25Z" style="fill: rgb(253, 228, 150);"></path><path d="M450,85.71428571428572h25v28.571428571428573h-25Z" style="fill: rgb(250, 244, 170);"></path><path d="M475,85.71428571428572h25v28.571428571428573h-25Z" style="fill: rgb(249, 244, 171);"></path><path d="M500,85.71428571428572h25v28.571428571428573h-25Z" style="fill: rgb(249, 245, 171);"></path><path d="M525,85.71428571428572h25v28.571428571428573h-25Z" style="fill: rgb(249, 245, 172);"></path><path d="M550,85.71428571428572h25v28.571428571428573h-25Z" style="fill: rgb(249, 246, 172);"></path><path d="M575,85.71428571428572h25v28.571428571428573h-25Z" style="fill: rgb(249, 246, 173);"></path><path d="M0,28.571428571428573h25v28.571428571428573h-25Z" style="fill: rgb(251, 238, 163);"></path><path d="M25,28.571428571428573h25v28.571428571428573h-25Z" style="fill: rgb(251, 239, 164);"></path><path d="M50,28.571428571428573h25v28.571428571428573h-25Z" style="fill: rgb(250, 239, 164);"></path><path d="M75,28.571428571428573h25v28.571428571428573h-25Z" style="fill: rgb(250, 240, 165);"></path><path d="M100,28.571428571428573h25v28.571428571428573h-25Z" style="fill: rgb(250, 240, 165);"></path><path d="M125,28.571428571428573h25v28.571428571428573h-25Z" style="fill: rgb(250, 241, 166);"></path><path d="M150,28.571428571428573h25v28.571428571428573h-25Z" style="fill: rgb(250, 241, 166);"></path><path d="M175,28.571428571428573h25v28.571428571428573h-25Z" style="fill: rgb(250, 241, 167);"></path><path d="M200,28.571428571428573h25v28.571428571428573h-25Z" style="fill: rgb(250, 242, 167);"></path><path d="M225,28.571428571428573h25v28.571428571428573h-25Z" style="fill: rgb(250, 242, 168);"></path><path d="M250,28.571428571428573h25v28.571428571428573h-25Z" style="fill: rgb(250, 243, 168);"></path><path d="M275,28.571428571428573h25v28.571428571428573h-25Z" style="fill: rgb(250, 243, 169);"></path><path d="M300,28.571428571428573h25v28.571428571428573h-25Z" style="fill: rgb(254, 222, 142);"></path><path d="M325,28.571428571428573h25v28.571428571428573h-25Z" style="fill: rgb(254, 222, 142);"></path><path d="M350,28.571428571428573h25v28.571428571428573h-25Z" style="fill: rgb(254, 222, 143);"></path><path d="M375,28.571428571428573h25v28.571428571428573h-25Z" style="fill: rgb(254, 223, 143);"></path><path d="M400,28.571428571428573h25v28.571428571428573h-25Z" style="fill: rgb(254, 223, 144);"></path><path d="M425,28.571428571428573h25v28.571428571428573h-25Z" style="fill: rgb(253, 224, 144);"></path><path d="M450,28.571428571428573h25v28.571428571428573h-25Z" style="fill: rgb(249, 246, 172);"></path><path d="M475,28.571428571428573h25v28.571428571428573h-25Z" style="fill: rgb(249, 246, 173);"></path><path d="M500,28.571428571428573h25v28.571428571428573h-25Z" style="fill: rgb(249, 246, 173);"></path><path d="M525,28.571428571428573h25v28.571428571428573h-25Z" style="fill: rgb(253, 225, 146);"></path><path d="M550,28.571428571428573h25v28.571428571428573h-25Z" style="fill: rgb(253, 226, 147);"></path><path d="M575,28.571428571428573h25v28.571428571428573h-25Z" style="fill: rgb(253, 226, 147);"></path><path d="M0,57.142857142857146h25v28.571428571428573h-25Z" style="fill: rgb(253, 226, 148);"></path><path d="M25,57.142857142857146h25v28.571428571428573h-25Z" style="fill: rgb(253, 227, 148);"></path><path d="M50,57.142857142857146h25v28.571428571428573h-25Z" style="fill: rgb(253, 227, 149);"></path><path d="M75,57.142857142857146h25v28.571428571428573h-25Z" style="fill: rgb(253, 228, 149);"></path><path d="M100,57.142857142857146h25v28.571428571428573h-25Z" style="fill: rgb(253, 228, 150);"></path><path d="M125,57.142857142857146h25v28.571428571428573h-25Z" style="fill: rgb(253, 228, 150);"></path><path d="M150,57.142857142857146h25v28.571428571428573h-25Z" style="fill: rgb(253, 229, 151);"></path><path d="M175,57.142857142857146h25v28.571428571428573h-25Z" style="fill: rgb(252, 229, 151);"></path><path d="M200,57.142857142857146h25v28.571428571428573h-25Z" style="fill: rgb(244, 246, 169);"></path><path d="M225,57.142857142857146h25v28.571428571428573h-25Z" style="fill: rgb(237, 244, 163);"></path><path d="M250,57.142857142857146h25v28.571428571428573h-25Z" style="fill: rgb(237, 244, 163);"></path><path d="M275,57.142857142857146h25v28.571428571428573h-25Z" style="fill: rgb(236, 244, 162);"></path><path d="M300,57.142857142857146h25v28.571428571428573h-25Z" style="fill: rgb(252, 231, 154);"></path><path d="M325,57.142857142857146h25v28.571428571428573h-25Z" style="fill: rgb(252, 231, 154);"></path><path d="M350,57.142857142857146h25v28.571428571428573h-25Z" style="fill: rgb(252, 232, 155);"></path><path d="M375,57.142857142857146h25v28.571428571428573h-25Z" style="fill: rgb(252, 232, 155);"></path><path d="M400,57.142857142857146h25v28.571428571428573h-25Z" style="fill: rgb(252, 233, 156);"></path><path d="M425,57.142857142857146h25v28.571428571428573h-25Z" style="fill: rgb(252, 233, 156);"></path><path d="M450,57.142857142857146h25v28.571428571428573h-25Z" style="fill: rgb(252, 233, 157);"></path><path d="M475,57.142857142857146h25v28.571428571428573h-25Z" style="fill: rgb(252, 234, 157);"></path><path d="M500,57.142857142857146h25v28.571428571428573h-25Z" style="fill: rgb(251, 234, 158);"></path><path d="M525,57.142857142857146h25v28.571428571428573h-25Z" style="fill: rgb(251, 235, 158);"></path><path d="M550,57.142857142857146h25v28.571428571428573h-25Z" style="fill: rgb(251, 235, 159);"></path><path d="M575,57.142857142857146h25v28.571428571428573h-25Z" style="fill: rgb(251, 235, 159);"></path></g><g class="mark-group role-legend"><g transform="translate(618,0)"><path class="background" d="M0,0h35v216h-35Z" style="pointer-events: none; fill: none;"></path><g><g class="mark-group role-legend-entry"><g transform="translate(0,16)"><path class="background" d="M0,0h0v0h0Z" style="pointer-events: none; fill: none;"></path><g><g class="mark-rect role-legend-gradient" style="pointer-events: none;"><path d="M0,0h16v200h-16Z" style="fill: url(#gradient_0); stroke: #ddd; stroke-width: 0; opacity: 1;"></path></g><g class="mark-text role-legend-label" style="pointer-events: none;"><text text-anchor="start" transform="translate(18,198)" style="font-family: sans-serif; font-size: 10px; fill: #000; opacity: 1;">-2</text><text text-anchor="start" transform="translate(18,153)" style="font-family: sans-serif; font-size: 10px; fill: #000; opacity: 1;">-1</text><text text-anchor="start" transform="translate(18,103)" style="font-family: sans-serif; font-size: 10px; fill: #000; opacity: 1;">0</text><text text-anchor="start" transform="translate(18,53)" style="font-family: sans-serif; font-size: 10px; fill: #000; opacity: 1;">1</text><text text-anchor="start" transform="translate(18,8)" style="font-family: sans-serif; font-size: 10px; fill: #000; opacity: 1;">2</text></g></g></g></g><g class="mark-text role-legend-title" style="pointer-events: none;"><text text-anchor="start" transform="translate(0,9)" style="font-family: sans-serif; font-size: 11px; font-weight: bold; fill: #000; opacity: 1;">Cent</text></g></g></g></g><g class="mark-text role-title" style="pointer-events: none;"><text text-anchor="middle" transform="translate(300,-7)" style="font-family: sans-serif; font-size: 13px; font-weight: bold; fill: #000; opacity: 1;">Difference in gasoline price - diesel, cheapest gas station</text></g><g class="mark-group role-axis"><g transform="translate(0.5,200.5)"><path class="background" d="M0,0h0v0h0Z" style="pointer-events: none; fill: none;"></path><g><g class="mark-rule role-axis-tick" style="pointer-events: none;"><line transform="translate(12,0)" x2="0" y2="5" style="fill: none; stroke: #888; stroke-width: 1; opacity: 1;"></line><line transform="translate(37,0)" x2="0" y2="5" style="fill: none; stroke: #888; stroke-width: 1; opacity: 1;"></line><line transform="translate(62,0)" x2="0" y2="5" style="fill: none; stroke: #888; stroke-width: 1; opacity: 1;"></line><line transform="translate(87,0)" x2="0" y2="5" style="fill: none; stroke: #888; stroke-width: 1; opacity: 1;"></line><line transform="translate(112,0)" x2="0" y2="5" style="fill: none; stroke: #888; stroke-width: 1; opacity: 1;"></line><line transform="translate(137,0)" x2="0" y2="5" style="fill: none; stroke: #888; stroke-width: 1; opacity: 1;"></line><line transform="translate(162,0)" x2="0" y2="5" style="fill: none; stroke: #888; stroke-width: 1; opacity: 1;"></line><line transform="translate(187,0)" x2="0" y2="5" style="fill: none; stroke: #888; stroke-width: 1; opacity: 1;"></line><line transform="translate(212,0)" x2="0" y2="5" style="fill: none; stroke: #888; stroke-width: 1; opacity: 1;"></line><line transform="translate(237,0)" x2="0" y2="5" style="fill: none; stroke: #888; stroke-width: 1; opacity: 1;"></line><line transform="translate(262,0)" x2="0" y2="5" style="fill: none; stroke: #888; stroke-width: 1; opacity: 1;"></line><line transform="translate(287,0)" x2="0" y2="5" style="fill: none; stroke: #888; stroke-width: 1; opacity: 1;"></line><line transform="translate(312,0)" x2="0" y2="5" style="fill: none; stroke: #888; stroke-width: 1; opacity: 1;"></line><line transform="translate(337,0)" x2="0" y2="5" style="fill: none; stroke: #888; stroke-width: 1; opacity: 1;"></line><line transform="translate(362,0)" x2="0" y2="5" style="fill: none; stroke: #888; stroke-width: 1; opacity: 1;"></line><line transform="translate(387,0)" x2="0" y2="5" style="fill: none; stroke: #888; stroke-width: 1; opacity: 1;"></line><line transform="translate(412,0)" x2="0" y2="5" style="fill: none; stroke: #888; stroke-width: 1; opacity: 1;"></line><line transform="translate(437,0)" x2="0" y2="5" style="fill: none; stroke: #888; stroke-width: 1; opacity: 1;"></line><line transform="translate(462,0)" x2="0" y2="5" style="fill: none; stroke: #888; stroke-width: 1; opacity: 1;"></line><line transform="translate(487,0)" x2="0" y2="5" style="fill: none; stroke: #888; stroke-width: 1; opacity: 1;"></line><line transform="translate(512,0)" x2="0" y2="5" style="fill: none; stroke: #888; stroke-width: 1; opacity: 1;"></line><line transform="translate(537,0)" x2="0" y2="5" style="fill: none; stroke: #888; stroke-width: 1; opacity: 1;"></line><line transform="translate(562,0)" x2="0" y2="5" style="fill: none; stroke: #888; stroke-width: 1; opacity: 1;"></line><line transform="translate(587,0)" x2="0" y2="5" style="fill: none; stroke: #888; stroke-width: 1; opacity: 1;"></line></g><g class="mark-text role-axis-label" style="pointer-events: none;"><text text-anchor="end" transform="translate(11.5,7) rotate(270) translate(0,3)" style="font-family: sans-serif; font-size: 10px; fill: #000; opacity: 1;">0</text><text text-anchor="end" transform="translate(36.5,7) rotate(270) translate(0,3)" style="font-family: sans-serif; font-size: 10px; fill: #000; opacity: 1;">1</text><text text-anchor="end" transform="translate(61.5,7) rotate(270) translate(0,3)" style="font-family: sans-serif; font-size: 10px; fill: #000; opacity: 1;">2</text><text text-anchor="end" transform="translate(86.5,7) rotate(270) translate(0,3)" style="font-family: sans-serif; font-size: 10px; fill: #000; opacity: 1;">3</text><text text-anchor="end" transform="translate(111.5,7) rotate(270) translate(0,3)" style="font-family: sans-serif; font-size: 10px; fill: #000; opacity: 1;">4</text><text text-anchor="end" transform="translate(136.5,7) rotate(270) translate(0,3)" style="font-family: sans-serif; font-size: 10px; fill: #000; opacity: 1;">5</text><text text-anchor="end" transform="translate(161.5,7) rotate(270) translate(0,3)" style="font-family: sans-serif; font-size: 10px; fill: #000; opacity: 1;">6</text><text text-anchor="end" transform="translate(186.5,7) rotate(270) translate(0,3)" style="font-family: sans-serif; font-size: 10px; fill: #000; opacity: 1;">7</text><text text-anchor="end" transform="translate(211.5,7) rotate(270) translate(0,3)" style="font-family: sans-serif; font-size: 10px; fill: #000; opacity: 1;">8</text><text text-anchor="end" transform="translate(236.5,7) rotate(270) translate(0,3)" style="font-family: sans-serif; font-size: 10px; fill: #000; opacity: 1;">9</text><text text-anchor="end" transform="translate(261.5,7) rotate(270) translate(0,3)" style="font-family: sans-serif; font-size: 10px; fill: #000; opacity: 1;">10</text><text text-anchor="end" transform="translate(286.5,7) rotate(270) translate(0,3)" style="font-family: sans-serif; font-size: 10px; fill: #000; opacity: 1;">11</text><text text-anchor="end" transform="translate(311.5,7) rotate(270) translate(0,3)" style="font-family: sans-serif; font-size: 10px; fill: #000; opacity: 1;">12</text><text text-anchor="end" transform="translate(336.5,7) rotate(270) translate(0,3)" style="font-family: sans-serif; font-size: 10px; fill: #000; opacity: 1;">13</text><text text-anchor="end" transform="translate(361.5,7) rotate(270) translate(0,3)" style="font-family: sans-serif; font-size: 10px; fill: #000; opacity: 1;">14</text><text text-anchor="end" transform="translate(386.5,7) rotate(270) translate(0,3)" style="font-family: sans-serif; font-size: 10px; fill: #000; opacity: 1;">15</text><text text-anchor="end" transform="translate(411.5,7) rotate(270) translate(0,3)" style="font-family: sans-serif; font-size: 10px; fill: #000; opacity: 1;">16</text><text text-anchor="end" transform="translate(436.5,7) rotate(270) translate(0,3)" style="font-family: sans-serif; font-size: 10px; fill: #000; opacity: 1;">17</text><text text-anchor="end" transform="translate(461.5,7) rotate(270) translate(0,3)" style="font-family: sans-serif; font-size: 10px; fill: #000; opacity: 1;">18</text><text text-anchor="end" transform="translate(486.5,7) rotate(270) translate(0,3)" style="font-family: sans-serif; font-size: 10px; fill: #000; opacity: 1;">19</text><text text-anchor="end" transform="translate(511.5,7) rotate(270) translate(0,3)" style="font-family: sans-serif; font-size: 10px; fill: #000; opacity: 1;">20</text><text text-anchor="end" transform="translate(536.5,7) rotate(270) translate(0,3)" style="font-family: sans-serif; font-size: 10px; fill: #000; opacity: 1;">21</text><text text-anchor="end" transform="translate(561.5,7) rotate(270) translate(0,3)" style="font-family: sans-serif; font-size: 10px; fill: #000; opacity: 1;">22</text><text text-anchor="end" transform="translate(586.5,7) rotate(270) translate(0,3)" style="font-family: sans-serif; font-size: 10px; fill: #000; opacity: 1;">23</text></g><g class="mark-rule role-axis-domain" style="pointer-events: none;"><line transform="translate(0,0)" x2="600" y2="0" style="fill: none; stroke: #888; stroke-width: 1; opacity: 1;"></line></g><g class="mark-text role-axis-title" style="pointer-events: none;"><text text-anchor="middle" transform="translate(300,36)" style="font-family: sans-serif; font-size: 11px; font-weight: bold; fill: #000; opacity: 1;">Hour</text></g></g></g></g><g class="mark-group role-axis"><g transform="translate(0.5,0.5)"><path class="background" d="M0,0h0v0h0Z" style="pointer-events: none; fill: none;"></path><g><g class="mark-rule role-axis-tick" style="pointer-events: none;"><line transform="translate(0,13)" x2="-5" y2="0" style="fill: none; stroke: #888; stroke-width: 1; opacity: 1;"></line><line transform="translate(0,42)" x2="-5" y2="0" style="fill: none; stroke: #888; stroke-width: 1; opacity: 1;"></line><line transform="translate(0,70)" x2="-5" y2="0" style="fill: none; stroke: #888; stroke-width: 1; opacity: 1;"></line><line transform="translate(0,99)" x2="-5" y2="0" style="fill: none; stroke: #888; stroke-width: 1; opacity: 1;"></line><line transform="translate(0,128)" x2="-5" y2="0" style="fill: none; stroke: #888; stroke-width: 1; opacity: 1;"></line><line transform="translate(0,156)" x2="-5" y2="0" style="fill: none; stroke: #888; stroke-width: 1; opacity: 1;"></line><line transform="translate(0,185)" x2="-5" y2="0" style="fill: none; stroke: #888; stroke-width: 1; opacity: 1;"></line></g><g class="mark-text role-axis-label" style="pointer-events: none;"><text text-anchor="end" transform="translate(-7,16.285714285714285)" style="font-family: sans-serif; font-size: 10px; fill: #000; opacity: 1;">Monday</text><text text-anchor="end" transform="translate(-7,44.85714285714286)" style="font-family: sans-serif; font-size: 10px; fill: #000; opacity: 1;">Tuesday</text><text text-anchor="end" transform="translate(-7,73.42857142857143)" style="font-family: sans-serif; font-size: 10px; fill: #000; opacity: 1;">Wednesday</text><text text-anchor="end" transform="translate(-7,102.00000000000001)" style="font-family: sans-serif; font-size: 10px; fill: #000; opacity: 1;">Thursday</text><text text-anchor="end" transform="translate(-7,130.57142857142858)" style="font-family: sans-serif; font-size: 10px; fill: #000; opacity: 1;">Friday</text><text text-anchor="end" transform="translate(-7,159.14285714285714)" style="font-family: sans-serif; font-size: 10px; fill: #000; opacity: 1;">Saturday</text><text text-anchor="end" transform="translate(-7,187.71428571428572)" style="font-family: sans-serif; font-size: 10px; fill: #000; opacity: 1;">Sunday</text></g><g class="mark-rule role-axis-domain" style="pointer-events: none;"><line transform="translate(0,0)" x2="0" y2="200" style="fill: none; stroke: #888; stroke-width: 1; opacity: 1;"></line></g><g class="mark-text role-axis-title" style="pointer-events: none;"><text text-anchor="middle" transform="translate(-83,100) rotate(-90) translate(0,-2)" style="font-family: sans-serif; font-size: 11px; font-weight: bold; fill: #000; opacity: 1;">Day of week</text></g></g></g></g></g></g></g></g></svg>