<svg class="marks" width="730" height="261" viewBox="0 0 730 261" version="1.1" xmlns="http://www.w3.org/2000/svg" xmlns:xlink="http://www.w3.org/1999/xlink"><defs><linearGradient id="gradient_3" x1="0" x2="0" y1="1" y2="0"><stop offset="0" stop-color="rgb(0, 104, 55)"></stop><stop offset="0.04999999999999999" stop-color="rgb(17, 127, 67)"></stop><stop offset="0.09999999999999998" stop-color="rgb(34, 150, 79)"></stop><stop offset="0.15000000000000002" stop-color="rgb(67, 169, 88)"></stop><stop offset="0.2" stop-color="rgb(100, 188, 97)"></stop><stop offset="0.25" stop-color="rgb(132, 202, 104)"></stop><stop offset="0.3" stop-color="rgb(164, 216, 110)"></stop><stop offset="0.35" stop-color="rgb(190, 227, 126)"></stop><stop offset="0.4" stop-color="rgb(215, 238, 142)"></stop><stop offset="0.45" stop-color="rgb(232, 243, 158)"></stop><stop offset="0.5" stop-color="rgb(249, 247, 174)"></stop><stop offset="0.55" stop-color="rgb(252, 234, 158)"></stop><stop offset="0.6" stop-color="rgb(254, 221, 141)"></stop><stop offset="0.65" stop-color="rgb(253, 197, 120)"></stop><stop offset="0.7" stop-color="rgb(252, 172, 99)"></stop><stop offset="0.75" stop-color="rgb(247, 141, 83)"></stop><stop offset="0.8" stop-color="rgb(241, 110, 67)"></stop><stop offset="0.85" stop-color="rgb(227, 80, 56)"></stop><stop offset="0.9" stop-color="rgb(212, 50, 44)"></stop><stop offset="0.95" stop-color="rgb(189, 25, 41)"></stop><stop offset="1" stop-color="rgb(165, 0, 38)"></stop></linearGradient></defs><rect width="730" height="261" fill="white"></rect><g fill="none" stroke-miterlimit="10" transform="translate(80,22)"><g class="mark-group role-frame root" role="graphics-object" aria-roledescription="group mark container"><g transform="translate(0,0)"><path class="background" aria-hidden="true" d="M0.5,0.5h600v200h-600Z" stroke="#ddd"></path><g><g class="mark-rect role-mark marks" role="graphics-symbol" aria-roledescription="rect mark container"><path d="M0,114.28571428571429h25v28.571428571428573h-25Z" fill="rgb(254, 221, 141)"></path><path d="M25,114.28571428571429h25v28.571428571428573h-25Z" fill="rgb(254, 221, 141)"></path><path d="M50,114.28571428571429h25v28.571428571428573h-25Z" fill="rgb(254, 221, 141)"></path><path d="M75,114.28571428571429h25v28.571428571428573h-25Z" fill="rgb(254, 221, 141)"></path><path d="M100,114.28571428571429h25v28.571428571428573h-25Z" fill="rgb(254, 221, 142)"></path><path d="M125,114.28571428571429h25v28.571428571428573h-25Z" fill="rgb(254, 222, 142)"></path><path d="M150,114.28571428571429h25v28.571428571428573h-25Z" fill="rgb(252, 231, 154)"></path><path d="M175,114.28571428571429h25v28.571428571428573h-25Z" fill="rgb(251, 238, 162)"></path><path d="M200,114.28571428571429h25v28.571428571428573h-25Z" fill="rgb(251, 238, 163)"></path><path d="M225,114.28571428571429h25v28.571428571428573h-25Z" fill="rgb(239, 244, 165)"></path><path d="M250,114.28571428571429h25v28.571428571428573h-25Z" fill="rgb(242, 245, 167)"></path><path d="M275,114.28571428571429h25v28.571428571428573h-25Z" fill="rgb(242, 245, 167)"></path><path d="M300,114.28571428571429h25v28.571428571428573h-25Z" fill="rgb(117, 0, 32)"></path><path d="M325,114.28571428571429h25v28.571428571428573h-25Z" fill="rgb(162, 0, 38)"></path><path d="M350,114.28571428571429h25v28.571428571428573h-25Z" fill="rgb(246, 139, 82)"></path><path d="M375,114.28571428571429h25v28.571428571428573h-25Z" fill="rgb(254, 210, 132)"></path><path d="M400,114.28571428571429h25v28.571428571428573h-25Z" fill="rgb(253, 228, 150)"></path><path d="M425,114.28571428571429h25v28.571428571428573h-25Z" fill="rgb(251, 234, 158)"></path><path d="M450,114.28571428571429h25v28.571428571428573h-25Z" fill="rgb(251, 237, 162)"></path><path d="M475,114.28571428571429h25v28.571428571428573h-25Z" fill="rgb(251, 238, 162)"></path><path d="M500,114.28571428571429h25v28.571428571428573h-25Z" fill="rgb(251, 238, 163)"></path><path d="M525,114.28571428571429h25v28.571428571428573h-25Z" fill="rgb(252, 233, 157)"></path><path d="M550,114.28571428571429h25v28.571428571428573h-25Z" fill="rgb(254, 211, 133)"></path><path d="M575,114.28571428571429h25v28.571428571428573h-25Z" fill="rgb(254, 212, 133)"></path><path d="M0,0h25v28.571428571428573h-25Z" fill="rgb(42, 154, 81)"></path><path d="M25,0h25v28.571428571428573h-25Z" fill="rgb(42, 155, 81)"></path><path d="M50,0h25v28.571428571428573h-25Z" fill="rgb(43, 155, 81)"></path><path d="M75,0h25v28.571428571428573h-25Z" fill="rgb(42, 155, 81)"></path><path d="M100,0h25v28.571428571428573h-25Z" fill="rgb(43, 155, 81)"></path><path d="M125,0h25v28.571428571428573h-25Z" fill="rgb(43, 155, 81)"></path><path d="M150,0h25v28.571428571428573h-25Z" fill="rgb(31, 146, 77)"></path><path d="M175,0h25v28.571428571428573h-25Z" fill="rgb(29, 143, 76)"></path><path d="M200,0h25v28.571428571428573h-25Z" fill="rgb(21, 132, 70)"></path><path d="M225,0h25v28.571428571428573h-25Z" fill="rgb(18, 129, 68)"></path><path d="M250,0h25v28.571428571428573h-25Z" fill="rgb(14, 124, 65)"></path><path d="M275,0h25v28.571428571428573h-25Z" fill="rgb(11, 119, 63)"></path><path d="M300,0h25v28.571428571428573h-25Z" fill="rgb(99, 0, 30)"></path><path d="M325,0h25v28.571428571428573h-25Z" fill="rgb(213, 51, 44)"></path><path d="M350,0h25v28.571428571428573h-25Z" fill="rgb(243, 123, 74)"></path><path d="M375,0h25v28.571428571428573h-25Z" fill="rgb(250, 241, 167)"></path><path d="M400,0h25v28.571428571428573h-25Z" fill="rgb(252, 233, 156)"></path><path d="M425,0h25v28.571428571428573h-25Z" fill="rgb(242, 245, 168)"></path><path d="M450,0h25v28.571428571428573h-25Z" fill="rgb(240, 245, 165)"></path><path d="M475,0h25v28.571428571428573h-25Z" fill="rgb(236, 243, 162)"></path><path d="M500,0h25v28.571428571428573h-25Z" fill="rgb(236, 243, 161)"></path><path d="M525,0h25v28.571428571428573h-25Z" fill="rgb(237, 244, 162)"></path><path d="M550,0h25v28.571428571428573h-25Z" fill="rgb(250, 239, 164)"></path><path d="M575,0h25v28.571428571428573h-25Z" fill="rgb(250, 239, 164)"></path><path d="M0,142.85714285714286h25v28.571428571428573h-25Z" fill="rgb(254, 212, 134)"></path><path d="M25,142.85714285714286h25v28.571428571428573h-25Z" fill="rgb(254, 213, 134)"></path><path d="M50,142.85714285714286h25v28.571428571428573h-25Z" fill="rgb(254, 213, 134)"></path><path d="M75,142.85714285714286h25v28.571428571428573h-25Z" fill="rgb(254, 213, 134)"></path><path d="M100,142.85714285714286h25v28.571428571428573h-25Z" fill="rgb(254, 213, 134)"></path><path d="M125,142.85714285714286h25v28.571428571428573h-25Z" fill="rgb(254, 213, 135)"></path><path d="M150,142.85714285714286h25v28.571428571428573h-25Z" fill="rgb(251, 235, 159)"></path><path d="M175,142.85714285714286h25v28.571428571428573h-25Z" fill="rgb(250, 241, 166)"></path><path d="M200,142.85714285714286h25v28.571428571428573h-25Z" fill="rgb(250, 241, 166)"></path><path d="M225,142.85714285714286h25v28.571428571428573h-25Z" fill="rgb(250, 243, 168)"></path><path d="M250,142.85714285714286h25v28.571428571428573h-25Z" fill="rgb(249, 245, 172)"></path><path d="M275,142.85714285714286h25v28.571428571428573h-25Z" fill="rgb(246, 246, 171)"></path><path d="M300,142.85714285714286h25v28.571428571428573h-25Z" fill="rgb(242, 245, 167)"></path><path d="M325,142.85714285714286h25v28.571428571428573h-25Z" fill="rgb(222, 240, 149)"></path><path d="M350,142.85714285714286h25v28.571428571428573h-25Z" fill="rgb(203, 233, 135)"></path><path d="M375,142.85714285714286h25v28.571428571428573h-25Z" fill="rgb(202, 232, 134)"></path><path d="M400,142.85714285714286h25v28.571428571428573h-25Z" fill="rgb(186, 225, 124)"></path><path d="M425,142.85714285714286h25v28.571428571428573h-25Z" fill="rgb(170, 219, 114)"></path><path d="M450,142.85714285714286h25v28.571428571428573h-25Z" fill="rgb(168, 218, 112)"></path><path d="M475,142.85714285714286h25v28.571428571428573h-25Z" fill="rgb(167, 217, 112)"></path><path d="M500,142.85714285714286h25v28.571428571428573h-25Z" fill="rgb(167, 217, 112)"></path><path d="M525,142.85714285714286h25v28.571428571428573h-25Z" fill="rgb(167, 217, 112)"></path><path d="M550,142.85714285714286h25v28.571428571428573h-25Z" fill="rgb(170, 219, 114)"></path><path d="M575,142.85714285714286h25v28.571428571428573h-25Z" fill="rgb(170, 219, 114)"></path><path d="M0,171.42857142857144h25v28.571428571428573h-25Z" fill="rgb(170, 219, 114)"></path><path d="M25,171.42857142857144h25v28.571428571428573h-25Z" fill="rgb(161, 215, 109)"></path><path d="M50,171.42857142857144h25v28.571428571428573h-25Z" fill="rgb(161, 215, 109)"></path><path d="M75,171.42857142857144h25v28.571428571428573h-25Z" fill="rgb(162, 215, 110)"></path><path d="M100,171.42857142857144h25v28.571428571428573h-25Z" fill="rgb(162, 215, 110)"></path><path d="M125,171.42857142857144h25v28.571428571428573h-25Z" fill="rgb(152, 211, 108)"></path><path d="M150,171.42857142857144h25v28.571428571428573h-25Z" fill="rgb(144, 207, 106)"></path><path d="M175,171.42857142857144h25v28.571428571428573h-25Z" fill="rgb(143, 207, 106)"></path><path d="M200,171.42857142857144h25v28.571428571428573h-25Z" fill="rgb(143, 207, 106)"></path><path d="M225,171.42857142857144h25v28.571428571428573h-25Z" fill="rgb(136, 204, 104)"></path><path d="M250,171.42857142857144h25v28.571428571428573h-25Z" fill="rgb(95, 185, 96)"></path><path d="M275,171.42857142857144h25v28.571428571428573h-25Z" fill="rgb(92, 183, 95)"></path><path d="M300,171.42857142857144h25v28.571428571428573h-25Z" fill="rgb(90, 182, 94)"></path><path d="M325,171.42857142857144h25v28.571428571428573h-25Z" fill="rgb(89, 181, 94)"></path><path d="M350,171.42857142857144h25v28.571428571428573h-25Z" fill="rgb(62, 166, 87)"></path><path d="M375,171.42857142857144h25v28.571428571428573h-25Z" fill="rgb(62, 166, 87)"></path><path d="M400,171.42857142857144h25v28.571428571428573h-25Z" fill="rgb(57, 163, 85)"></path><path d="M425,171.42857142857144h25v28.571428571428573h-25Z" fill="rgb(57, 163, 85)"></path><path d="M450,171.42857142857144h25v28.571428571428573h-25Z" fill="rgb(56, 162, 85)"></path><path d="M475,171.42857142857144h25v28.571428571428573h-25Z" fill="rgb(56, 162, 85)"></path><path d="M500,171.42857142857144h25v28.571428571428573h-25Z" fill="rgb(53, 161, 84)"></path><path d="M525,171.42857142857144h25v28.571428571428573h-25Z" fill="rgb(33, 148, 78)"></path><path d="M550,171.42857142857144h25v28.571428571428573h-25Z" fill="rgb(41, 154, 81)"></path><path d="M575,171.42857142857144h25v28.571428571428573h-25Z" fill="rgb(42, 154, 81)"></path><path d="M0,85.71428571428572h25v28.571428571428573h-25Z" fill="rgb(254, 222, 143)"></path><path d="M25,85.71428571428572h25v28.571428571428573h-25Z" fill="rgb(254, 222, 143)"></path><path d="M50,85.71428571428572h25v28.571428571428573h-25Z" fill="rgb(254, 223, 143)"></path><path d="M75,85.71428571428572h25v28.571428571428573h-25Z" fill="rgb(254, 223, 143)"></path><path d="M100,85.71428571428572h25v28.571428571428573h-25Z" fill="rgb(254, 223, 144)"></path><path d="M125,85.71428571428572h25v28.571428571428573h-25Z" fill="rgb(254, 221, 141)"></path><path d="M150,85.71428571428572h25v28.571428571428573h-25Z" fill="rgb(249, 245, 171)"></path><path d="M175,85.71428571428572h25v28.571428571428573h-25Z" fill="rgb(236, 243, 161)"></path><path d="M200,85.71428571428572h25v28.571428571428573h-25Z" fill="rgb(235, 243, 161)"></path><path d="M225,85.71428571428572h25v28.571428571428573h-25Z" fill="rgb(229, 242, 155)"></path><path d="M250,85.71428571428572h25v28.571428571428573h-25Z" fill="rgb(223, 240, 150)"></path><path d="M275,85.71428571428572h25v28.571428571428573h-25Z" fill="rgb(223, 240, 149)"></path><path d="M300,85.71428571428572h25v28.571428571428573h-25Z" fill="rgb(98, 0, 29)"></path><path d="M325,85.71428571428572h25v28.571428571428573h-25Z" fill="rgb(118, 0, 32)"></path><path d="M350,85.71428571428572h25v28.571428571428573h-25Z" fill="rgb(162, 0, 38)"></path><path d="M375,85.71428571428572h25v28.571428571428573h-25Z" fill="rgb(251, 167, 96)"></path><path d="M400,85.71428571428572h25v28.571428571428573h-25Z" fill="rgb(253, 203, 125)"></path><path d="M425,85.71428571428572h25v28.571428571428573h-25Z" fill="rgb(253, 229, 151)"></path><path d="M450,85.71428571428572h25v28.571428571428573h-25Z" fill="rgb(252, 230, 152)"></path><path d="M475,85.71428571428572h25v28.571428571428573h-25Z" fill="rgb(252, 230, 152)"></path><path d="M500,85.71428571428572h25v28.571428571428573h-25Z" fill="rgb(252, 230, 152)"></path><path d="M525,85.71428571428572h25v28.571428571428573h-25Z" fill="rgb(252, 230, 153)"></path><path d="M550,85.71428571428572h25v28.571428571428573h-25Z" fill="rgb(254, 220, 140)"></path><path d="M575,85.71428571428572h25v28.571428571428573h-25Z" fill="rgb(254, 221, 141)"></path><path d="M0,28.571428571428573h25v28.571428571428573h-25Z" fill="rgb(250, 243, 169)"></path><path d="M25,28.571428571428573h25v28.571428571428573h-25Z" fill="rgb(250, 243, 169)"></path><path d="M50,28.571428571428573h25v28.571428571428573h-25Z" fill="rgb(250, 243, 168)"></path><path d="M75,28.571428571428573h25v28.571428571428573h-25Z" fill="rgb(250, 243, 169)"></path><path d="M100,28.571428571428573h25v28.571428571428573h-25Z" fill="rgb(250, 243, 169)"></path><path d="M125,28.571428571428573h25v28.571428571428573h-25Z" fill="rgb(250, 243, 169)"></path><path d="M150,28.571428571428573h25v28.571428571428573h-25Z" fill="rgb(233, 243, 159)"></path><path d="M175,28.571428571428573h25v28.571428571428573h-25Z" fill="rgb(230, 242, 156)"></path><path d="M200,28.571428571428573h25v28.571428571428573h-25Z" fill="rgb(232, 242, 158)"></path><path d="M225,28.571428571428573h25v28.571428571428573h-25Z" fill="rgb(231, 242, 157)"></path><path d="M250,28.571428571428573h25v28.571428571428573h-25Z" fill="rgb(227, 241, 153)"></path><path d="M275,28.571428571428573h25v28.571428571428573h-25Z" fill="rgb(221, 240, 148)"></path><path d="M300,28.571428571428573h25v28.571428571428573h-25Z" fill="rgb(55, 0, 24)"></path><path d="M325,28.571428571428573h25v28.571428571428573h-25Z" fill="rgb(140, 0, 35)"></path><path d="M350,28.571428571428573h25v28.571428571428573h-25Z" fill="rgb(242, 117, 71)"></path><path d="M375,28.571428571428573h25v28.571428571428573h-25Z" fill="rgb(252, 173, 100)"></path><path d="M400,28.571428571428573h25v28.571428571428573h-25Z" fill="rgb(252, 232, 155)"></path><path d="M425,28.571428571428573h25v28.571428571428573h-25Z" fill="rgb(250, 241, 166)"></path><path d="M450,28.571428571428573h25v28.571428571428573h-25Z" fill="rgb(250, 242, 168)"></path><path d="M475,28.571428571428573h25v28.571428571428573h-25Z" fill="rgb(242, 245, 168)"></path><path d="M500,28.571428571428573h25v28.571428571428573h-25Z" fill="rgb(245, 246, 170)"></path><path d="M525,28.571428571428573h25v28.571428571428573h-25Z" fill="rgb(251, 239, 164)"></path><path d="M550,28.571428571428573h25v28.571428571428573h-25Z" fill="rgb(254, 211, 133)"></path><path d="M575,28.571428571428573h25v28.571428571428573h-25Z" fill="rgb(254, 211, 133)"></path><path d="M0,57.142857142857146h25v28.571428571428573h-25Z" fill="rgb(254, 220, 140)"></path><path d="M25,57.142857142857146h25v28.571428571428573h-25Z" fill="rgb(254, 221, 141)"></path><path d="M50,57.142857142857146h25v28.571428571428573h-25Z" fill="rgb(254, 221, 141)"></path><path d="M75,57.142857142857146h25v28.571428571428573h-25Z" fill="rgb(254, 221, 141)"></path><path d="M100,57.142857142857146h25v28.571428571428573h-25Z" fill="rgb(254, 221, 141)"></path><path d="M125,57.142857142857146h25v28.571428571428573h-25Z" fill="rgb(254, 221, 141)"></path><path d="M150,57.142857142857146h25v28.571428571428573h-25Z" fill="rgb(251, 237, 161)"></path><path d="M175,57.142857142857146h25v28.571428571428573h-25Z" fill="rgb(230, 242, 156)"></path><path d="M200,57.142857142857146h25v28.571428571428573h-25Z" fill="rgb(227, 241, 153)"></path><path d="M225,57.142857142857146h25v28.571428571428573h-25Z" fill="rgb(231, 242, 157)"></path><path d="M250,57.142857142857146h25v28.571428571428573h-25Z" fill="rgb(226, 241, 152)"></path><path d="M275,57.142857142857146h25v28.571428571428573h-25Z" fill="rgb(225, 241, 152)"></path><path d="M300,57.142857142857146h25v28.571428571428573h-25Z" fill="rgb(78, 0, 27)"></path><path d="M325,57.142857142857146h25v28.571428571428573h-25Z" fill="rgb(177, 13, 40)"></path><path d="M350,57.142857142857146h25v28.571428571428573h-25Z" fill="rgb(217, 60, 48)"></path><path d="M375,57.142857142857146h25v28.571428571428573h-25Z" fill="rgb(251, 237, 161)"></path><path d="M400,57.142857142857146h25v28.571428571428573h-25Z" fill="rgb(249, 246, 173)"></path><path d="M425,57.142857142857146h25v28.571428571428573h-25Z" fill="rgb(250, 244, 170)"></path><path d="M450,57.142857142857146h25v28.571428571428573h-25Z" fill="rgb(250, 241, 167)"></path><path d="M475,57.142857142857146h25v28.571428571428573h-25Z" fill="rgb(244, 246, 170)"></path><path d="M500,57.142857142857146h25v28.571428571428573h-25Z" fill="rgb(244, 246, 169)"></path><path d="M525,57.142857142857146h25v28.571428571428573h-25Z" fill="rgb(250, 243, 169)"></path><path d="M550,57.142857142857146h25v28.571428571428573h-25Z" fill="rgb(254, 223, 144)"></path><path d="M575,57.142857142857146h25v28.571428571428573h-25Z" fill="rgb(254, 223, 144)"></path></g><g class="mark-group role-legend" role="graphics-symbol" aria-roledescription="legend" aria-label="Gradient legend titled 'Cent' for fill color with values from -2 to 2"><g transform="translate(618,0)"><path class="background" aria-hidden="true" d="M0,0h27v216h-27Z" pointer-events="none"></path><g><g class="mark-group role-legend-entry"><g transform="translate(0,16)"><path class="background" aria-hidden="true" d="M0,0h0v0h0Z" pointer-events="none"></path><g><g class="mark-rect role-legend-gradient" pointer-events="none"><path d="M0,0h16v200h-16Z" fill="url(#gradient_3)" stroke="#ddd" stroke-width="0" opacity="1"></path></g><g class="mark-text role-legend-label" pointer-events="none"><text text-anchor="start" transform="translate(18,198)" font-family="sans-serif" font-size="10px" fill="#000" opacity="1">-2</text><text text-anchor="start" transform="translate(18,153)" font-family="sans-serif" font-size="10px" fill="#000" opacity="1">-1</text><text text-anchor="start" transform="translate(18,103)" font-family="sans-serif" font-size="10px" fill="#000" opacity="1">0</text><text text-anchor="start" transform="translate(18,53)" font-family="sans-serif" font-size="10px" fill="#000" opacity="1">1</text><text text-anchor="start" transform="translate(18,8)" font-family="sans-serif" font-size="10px" fill="#000" opacity="1">2</text></g></g><path class="foreground" aria-hidden="true" d="" pointer-events="none" display="none"></path></g></g><g class="mark-text role-legend-title" pointer-events="none"><text text-anchor="start" transform="translate(0,9)" font-family="sans-serif" font-size="11px" font-weight="bold" fill="#000" opacity="1">Cent</text></g></g><path class="foreground" aria-hidden="true" d="" pointer-events="none" display="none"></path></g></g><g class="mark-group role-title"><g transform="translate(300,-17)"><path class="background" aria-hidden="true" d="M0,0h0v0h0Z" pointer-events="none"></path><g><g class="mark-text role-title-text" role="graphics-symbol" aria-roledescription="title" aria-label="Title text 'Difference in gasoline price - premium gas, mean of 5 cheapest gas stations'" pointer-events="none"><text text-anchor="middle" transform="translate(0,10)" font-family="sans-serif" font-size="13px" font-weight="bold" fill="#000" opacity="1">Difference in gasoline price - premium gas, mean of 5 cheapest gas stations</text></g></g><path class="foreground" aria-hidden="true" d="" pointer-events="none" display="none"></path></g></g><g class="mark-group role-axis" role="graphics-symbol" aria-roledescription="axis" aria-label="X-axis titled 'Hour' for a discrete scale with 24 values: 0, 1, 2, 3, 4, ending with 23"><g transform="translate(0.5,200.5)"><path class="background" aria-hidden="true" d="M0,0h0v0h0Z" pointer-events="none"></path><g><g class="mark-rule role-axis-tick" pointer-events="none"><line transform="translate(12,0)" x2="0" y2="5" stroke="#888" stroke-width="1" opacity="1"></line><line transform="translate(37,0)" x2="0" y2="5" stroke="#888" stroke-width="1" opacity="1"></line><line transform="translate(62,0)" x2="0" y2="5" stroke="#888" stroke-width="1" opacity="1"></line><line transform="translate(87,0)" x2="0" y2="5" stroke="#888" stroke-width="1" opacity="1"></line><line transform="translate(112,0)" x2="0" y2="5" stroke="#888" stroke-width="1" opacity="1"></line><line transform="translate(137,0)" x2="0" y2="5" stroke="#888" stroke-width="1" opacity="1"></line><line transform="translate(162,0)" x2="0" y2="5" stroke="#888" stroke-width="1" opacity="1"></line><line transform="translate(187,0)" x2="0" y2="5" stroke="#888" stroke-width="1" opacity="1"></line><line transform="translate(212,0)" x2="0" y2="5" stroke="#888" stroke-width="1" opacity="1"></line><line transform="translate(237,0)" x2="0" y2="5" stroke="#888" stroke-width="1" opacity="1"></line><line transform="translate(262,0)" x2="0" y2="5" stroke="#888" stroke-width="1" opacity="1"></line><line transform="translate(287,0)" x2="0" y2="5" stroke="#888" stroke-width="1" opacity="1"></line><line transform="translate(312,0)" x2="0" y2="5" stroke="#888" stroke-width="1" opacity="1"></line><line transform="translate(337,0)" x2="0" y2="5" stroke="#888" stroke-width="1" opacity="1"></line><line transform="translate(362,0)" x2="0" y2="5" stroke="#888" stroke-width="1" opacity="1"></line><line transform="translate(387,0)" x2="0" y2="5" stroke="#888" stroke-width="1" opacity="1"></line><line transform="translate(412,0)" x2="0" y2="5" stroke="#888" stroke-width="1" opacity="1"></line><line transform="translate(437,0)" x2="0" y2="5" stroke="#888" stroke-width="1" opacity="1"></line><line transform="translate(462,0)" x2="0" y2="5" stroke="#888" stroke-width="1" opacity="1"></line><line transform="translate(487,0)" x2="0" y2="5" stroke="#888" stroke-width="1" opacity="1"></line><line transform="translate(512,0)" x2="0" y2="5" stroke="#888" stroke-width="1" opacity="1"></line><line transform="translate(537,0)" x2="0" y2="5" stroke="#888" stroke-width="1" opacity="1"></line><line transform="translate(562,0)" x2="0" y2="5" stroke="#888" stroke-width="1" opacity="1"></line><line transform="translate(587,0)" x2="0" y2="5" stroke="#888" stroke-width="1" opacity="1"></line></g><g class="mark-text role-axis-label" pointer-events="none"><text text-anchor="end" transform="translate(12,7) rotate(270) translate(0,3)" font-family="sans-serif" font-size="10px" fill="#000" opacity="1">0</text><text text-anchor="end" transform="translate(37,7) rotate(270) translate(0,3)" font-family="sans-serif" font-size="10px" fill="#000" opacity="1">1</text><text text-anchor="end" transform="translate(62,7) rotate(270) translate(0,3)" font-family="sans-serif" font-size="10px" fill="#000" opacity="1">2</text><text text-anchor="end" transform="translate(87,7) rotate(270) translate(0,3)" font-family="sans-serif" font-size="10px" fill="#000" opacity="1">3</text><text text-anchor="end" transform="translate(112,7) rotate(270) translate(0,3)" font-family="sans-serif" font-size="10px" fill="#000" opacity="1">4</text><text text-anchor="end" transform="translate(137,7) rotate(270) translate(0,3)" font-family="sans-serif" font-size="10px" fill="#000" opacity="1">5</text><text text-anchor="end" transform="translate(162,7) rotate(270) translate(0,3)" font-family="sans-serif" font-size="10px" fill="#000" opacity="1">6</text><text text-anchor="end" transform="translate(187,7) rotate(270) translate(0,3)" font-family="sans-serif" font-size="10px" fill="#000" opacity="1">7</text><text text-anchor="end" transform="translate(212,7) rotate(270) translate(0,3)" font-family="sans-serif" font-size="10px" fill="#000" opacity="1">8</text><text text-anchor="end" transform="translate(237,7) rotate(270) translate(0,3)" font-family="sans-serif" font-size="10px" fill="#000" opacity="1">9</text><text text-anchor="end" transform="translate(262,7) rotate(270) translate(0,3)" font-family="sans-serif" font-size="10px" fill="#000" opacity="1">10</text><text text-anchor="end" transform="translate(287,7) rotate(270) translate(0,3)" font-family="sans-serif" font-size="10px" fill="#000" opacity="1">11</text><text text-anchor="end" transform="translate(312,7) rotate(270) translate(0,3)" font-family="sans-serif" font-size="10px" fill="#000" opacity="1">12</text><text text-anchor="end" transform="translate(337,7) rotate(270) translate(0,3)" font-family="sans-serif" font-size="10px" fill="#000" opacity="1">13</text><text text-anchor="end" transform="translate(362,7) rotate(270) translate(0,3)" font-family="sans-serif" font-size="10px" fill="#000" opacity="1">14</text><text text-anchor="end" transform="translate(387,7) rotate(270) translate(0,3)" font-family="sans-serif" font-size="10px" fill="#000" opacity="1">15</text><text text-anchor="end" transform="translate(412,7) rotate(270) translate(0,3)" font-family="sans-serif" font-size="10px" fill="#000" opacity="1">16</text><text text-anchor="end" transform="translate(437,7) rotate(270) translate(0,3)" font-family="sans-serif" font-size="10px" fill="#000" opacity="1">17</text><text text-anchor="end" transform="translate(462,7) rotate(270) translate(0,3)" font-family="sans-serif" font-size="10px" fill="#000" opacity="1">18</text><text text-anchor="end" transform="translate(487,7) rotate(270) translate(0,3)" font-family="sans-serif" font-size="10px" fill="#000" opacity="1">19</text><text text-anchor="end" transform="translate(512,7) rotate(270) translate(0,3)" font-family="sans-serif" font-size="10px" fill="#000" opacity="1">20</text><text text-anchor="end" transform="translate(537,7) rotate(270) translate(0,3)" font-family="sans-serif" font-size="10px" fill="#000" opacity="1">21</text><text text-anchor="end" transform="translate(562,7) rotate(270) translate(0,3)" font-family="sans-serif" font-size="10px" fill="#000" opacity="1">22</text><text text-anchor="end" transform="translate(587,7) rotate(270) translate(0,3)" font-family="sans-serif" font-size="10px" fill="#000" opacity="1">23</text></g><g class="mark-rule role-axis-domain" pointer-events="none"><line transform="translate(0,0)" x2="600" y2="0" stroke="#888" stroke-width="1" opacity="1"></line></g><g class="mark-text role-axis-title" pointer-events="none"><text text-anchor="middle" transform="translate(300,31.123046875)" font-family="sans-serif" font-size="11px" font-weight="bold" fill="#000" opacity="1">Hour</text></g></g><path class="foreground" aria-hidden="true" d="" pointer-events="none" display="none"></path></g></g><g class="mark-group role-axis" role="graphics-symbol" aria-roledescription="axis" aria-label="Y-axis titled 'Day of week' for a discrete scale with 7 values: Monday, Tuesday, Wednesday, Thursday, Friday, Saturday, Sunday"><g transform="translate(0.5,0.5)"><path class="background" aria-hidden="true" d="M0,0h0v0h0Z" pointer-events="none"></path><g><g class="mark-rule role-axis-tick" pointer-events="none"><line transform="translate(0,14)" x2="-5" y2="0" stroke="#888" stroke-width="1" opacity="1"></line><line transform="translate(0,42)" x2="-5" y2="0" stroke="#888" stroke-width="1" opacity="1"></line><line transform="translate(0,71)" x2="-5" y2="0" stroke="#888" stroke-width="1" opacity="1"></line><line transform="translate(0,100)" x2="-5" y2="0" stroke="#888" stroke-width="1" opacity="1"></line><line transform="translate(0,128)" x2="-5" y2="0" stroke="#888" stroke-width="1" opacity="1"></line><line transform="translate(0,157)" x2="-5" y2="0" stroke="#888" stroke-width="1" opacity="1"></line><line transform="translate(0,185)" x2="-5" y2="0" stroke="#888" stroke-width="1" opacity="1"></line></g><g class="mark-text role-axis-label" pointer-events="none"><text text-anchor="end" transform="translate(-7,16.785714285714285)" font-family="sans-serif" font-size="10px" fill="#000" opacity="1">Monday</text><text text-anchor="end" transform="translate(-7,45.35714285714286)" font-family="sans-serif" font-size="10px" fill="#000" opacity="1">Tuesday</text><text text-anchor="end" transform="translate(-7,73.92857142857143)" font-family="sans-serif" font-size="10px" fill="#000" opacity="1">Wednesday</text><text text-anchor="end" transform="translate(-7,102.50000000000001)" font-family="sans-serif" font-size="10px" fill="#000" opacity="1">Thursday</text><text text-anchor="end" transform="translate(-7,131.07142857142858)" font-family="sans-serif" font-size="10px" fill="#000" opacity="1">Friday</text><text text-anchor="end" transform="translate(-7,159.64285714285714)" font-family="sans-serif" font-size="10px" fill="#000" opacity="1">Saturday</text><text text-anchor="end" transform="translate(-7,188.21428571428572)" font-family="sans-serif" font-size="10px" fill="#000" opacity="1">Sunday</text></g><g class="mark-rule role-axis-domain" pointer-events="none"><line transform="translate(0,0)" x2="0" y2="200" stroke="#888" stroke-width="1" opacity="1"></line></g><g class="mark-text role-axis-title" pointer-events="none"><text text-anchor="middle" transform="translate(-63.626953125,100) rotate(-90) translate(0,-2)" font-family="sans-serif" font-size="11px" font-weight="bold" fill="#000" opacity="1">Day of week</text></g></g><path class="foreground" aria-hidden="true" d="" pointer-events="none" display="none"></path></g></g></g><path class="foreground" aria-hidden="true" d="" display="none"></path></g></g></g></svg>