<svg class="marks" width="677" height="205" viewBox="0 0 677 205" version="1.1" xmlns="http://www.w3.org/2000/svg" xmlns:xlink="http://www.w3.org/1999/xlink"><defs><linearGradient id="gradient_0" x1="0" x2="0" y1="1" y2="0"><stop offset="0" stop-color="rgb(0, 104, 55)"></stop><stop offset="0.04999999999999999" stop-color="rgb(17, 127, 67)"></stop><stop offset="0.09999999999999998" stop-color="rgb(34, 150, 79)"></stop><stop offset="0.15000000000000002" stop-color="rgb(67, 169, 88)"></stop><stop offset="0.2" stop-color="rgb(100, 188, 97)"></stop><stop offset="0.25" stop-color="rgb(132, 202, 104)"></stop><stop offset="0.3" stop-color="rgb(164, 216, 110)"></stop><stop offset="0.35" stop-color="rgb(190, 227, 126)"></stop><stop offset="0.4" stop-color="rgb(215, 238, 142)"></stop><stop offset="0.45" stop-color="rgb(232, 243, 158)"></stop><stop offset="0.5" stop-color="rgb(249, 247, 174)"></stop><stop offset="0.55" stop-color="rgb(252, 234, 158)"></stop><stop offset="0.6" stop-color="rgb(254, 221, 141)"></stop><stop offset="0.65" stop-color="rgb(253, 197, 120)"></stop><stop offset="0.7" stop-color="rgb(252, 172, 99)"></stop><stop offset="0.75" stop-color="rgb(247, 141, 83)"></stop><stop offset="0.8" stop-color="rgb(241, 110, 67)"></stop><stop offset="0.85" stop-color="rgb(227, 80, 56)"></stop><stop offset="0.9" stop-color="rgb(212, 50, 44)"></stop><stop offset="0.95" stop-color="rgb(189, 25, 41)"></stop><stop offset="1" stop-color="rgb(165, 0, 38)"></stop></linearGradient></defs><g transform="translate(99,22)"><g class="mark-group role-frame root"><g transform="translate(0,0)"><path class="background" d="M0.5,0.5h480v140h-480Z" style="fill: none; stroke: #ddd;"></path><g><g class="mark-rect role-mark marks"><path d="M0,80h20v20h-20Z" style="fill: rgb(254, 223, 143);"></path><path d="M20,80h20v20h-20Z" style="fill: rgb(254, 223, 143);"></path><path d="M40,80h20v20h-20Z" style="fill: rgb(254, 223, 143);"></path><path d="M60,80h20v20h-20Z" style="fill: rgb(254, 223, 144);"></path><path d="M80,80h20v20h-20Z" style="fill: rgb(254, 223, 144);"></path><path d="M100,80h20v20h-20Z" style="fill: rgb(254, 223, 144);"></path><path d="M120,80h20v20h-20Z" style="fill: rgb(254, 223, 144);"></path><path d="M140,80h20v20h-20Z" style="fill: rgb(254, 224, 144);"></path><path d="M160,80h20v20h-20Z" style="fill: rgb(253, 224, 144);"></path><path d="M180,80h20v20h-20Z" style="fill: rgb(251, 235, 158);"></path><path d="M200,80h20v20h-20Z" style="fill: rgb(251, 235, 158);"></path><path d="M220,80h20v20h-20Z" style="fill: rgb(251, 235, 159);"></path><path d="M240,80h20v20h-20Z" style="fill: rgb(253, 224, 145);"></path><path d="M260,80h20v20h-20Z" style="fill: rgb(253, 224, 145);"></path><path d="M280,80h20v20h-20Z" style="fill: rgb(254, 210, 131);"></path><path d="M300,80h20v20h-20Z" style="fill: rgb(254, 210, 132);"></path><path d="M320,80h20v20h-20Z" style="fill: rgb(254, 211, 132);"></path><path d="M340,80h20v20h-20Z" style="fill: rgb(254, 211, 132);"></path><path d="M360,80h20v20h-20Z" style="fill: rgb(254, 211, 133);"></path><path d="M380,80h20v20h-20Z" style="fill: rgb(254, 212, 133);"></path><path d="M400,80h20v20h-20Z" style="fill: rgb(254, 212, 133);"></path><path d="M420,80h20v20h-20Z" style="fill: rgb(254, 212, 134);"></path><path d="M440,80h20v20h-20Z" style="fill: rgb(254, 213, 134);"></path><path d="M460,80h20v20h-20Z" style="fill: rgb(254, 213, 134);"></path><path d="M0,0h20v20h-20Z" style="fill: rgb(106, 191, 98);"></path><path d="M20,0h20v20h-20Z" style="fill: rgb(106, 191, 98);"></path><path d="M40,0h20v20h-20Z" style="fill: rgb(106, 191, 98);"></path><path d="M60,0h20v20h-20Z" style="fill: rgb(106, 191, 98);"></path><path d="M80,0h20v20h-20Z" style="fill: rgb(106, 191, 98);"></path><path d="M100,0h20v20h-20Z" style="fill: rgb(106, 191, 98);"></path><path d="M120,0h20v20h-20Z" style="fill: rgb(106, 191, 98);"></path><path d="M140,0h20v20h-20Z" style="fill: rgb(106, 191, 98);"></path><path d="M160,0h20v20h-20Z" style="fill: rgb(106, 191, 98);"></path><path d="M180,0h20v20h-20Z" style="fill: rgb(101, 189, 97);"></path><path d="M200,0h20v20h-20Z" style="fill: rgb(101, 189, 97);"></path><path d="M220,0h20v20h-20Z" style="fill: rgb(96, 186, 96);"></path><path d="M240,0h20v20h-20Z" style="fill: rgb(251, 236, 160);"></path><path d="M260,0h20v20h-20Z" style="fill: rgb(251, 236, 160);"></path><path d="M280,0h20v20h-20Z" style="fill: rgb(251, 236, 160);"></path><path d="M300,0h20v20h-20Z" style="fill: rgb(251, 236, 160);"></path><path d="M320,0h20v20h-20Z" style="fill: rgb(251, 236, 160);"></path><path d="M340,0h20v20h-20Z" style="fill: rgb(251, 236, 160);"></path><path d="M360,0h20v20h-20Z" style="fill: rgb(251, 236, 160);"></path><path d="M380,0h20v20h-20Z" style="fill: rgb(251, 236, 160);"></path><path d="M400,0h20v20h-20Z" style="fill: rgb(251, 236, 160);"></path><path d="M420,0h20v20h-20Z" style="fill: rgb(251, 236, 160);"></path><path d="M440,0h20v20h-20Z" style="fill: rgb(251, 236, 160);"></path><path d="M460,0h20v20h-20Z" style="fill: rgb(251, 236, 160);"></path><path d="M0,100h20v20h-20Z" style="fill: rgb(254, 214, 135);"></path><path d="M20,100h20v20h-20Z" style="fill: rgb(254, 214, 135);"></path><path d="M40,100h20v20h-20Z" style="fill: rgb(254, 215, 136);"></path><path d="M60,100h20v20h-20Z" style="fill: rgb(254, 215, 136);"></path><path d="M80,100h20v20h-20Z" style="fill: rgb(254, 215, 136);"></path><path d="M100,100h20v20h-20Z" style="fill: rgb(254, 216, 137);"></path><path d="M120,100h20v20h-20Z" style="fill: rgb(254, 216, 137);"></path><path d="M140,100h20v20h-20Z" style="fill: rgb(254, 217, 137);"></path><path d="M160,100h20v20h-20Z" style="fill: rgb(254, 217, 137);"></path><path d="M180,100h20v20h-20Z" style="fill: rgb(254, 217, 138);"></path><path d="M200,100h20v20h-20Z" style="fill: rgb(253, 208, 130);"></path><path d="M220,100h20v20h-20Z" style="fill: rgb(251, 236, 160);"></path><path d="M240,100h20v20h-20Z" style="fill: rgb(251, 236, 160);"></path><path d="M260,100h20v20h-20Z" style="fill: rgb(221, 240, 148);"></path><path d="M280,100h20v20h-20Z" style="fill: rgb(221, 240, 148);"></path><path d="M300,100h20v20h-20Z" style="fill: rgb(218, 239, 145);"></path><path d="M320,100h20v20h-20Z" style="fill: rgb(218, 239, 145);"></path><path d="M340,100h20v20h-20Z" style="fill: rgb(218, 239, 145);"></path><path d="M360,100h20v20h-20Z" style="fill: rgb(216, 238, 143);"></path><path d="M380,100h20v20h-20Z" style="fill: rgb(216, 238, 143);"></path><path d="M400,100h20v20h-20Z" style="fill: rgb(216, 238, 143);"></path><path d="M420,100h20v20h-20Z" style="fill: rgb(216, 238, 143);"></path><path d="M440,100h20v20h-20Z" style="fill: rgb(216, 238, 143);"></path><path d="M460,100h20v20h-20Z" style="fill: rgb(216, 238, 143);"></path><path d="M0,120h20v20h-20Z" style="fill: rgb(216, 238, 143);"></path><path d="M20,120h20v20h-20Z" style="fill: rgb(195, 229, 129);"></path><path d="M40,120h20v20h-20Z" style="fill: rgb(195, 229, 129);"></path><path d="M60,120h20v20h-20Z" style="fill: rgb(195, 229, 129);"></path><path d="M80,120h20v20h-20Z" style="fill: rgb(195, 229, 129);"></path><path d="M100,120h20v20h-20Z" style="fill: rgb(195, 229, 129);"></path><path d="M120,120h20v20h-20Z" style="fill: rgb(195, 229, 129);"></path><path d="M140,120h20v20h-20Z" style="fill: rgb(195, 229, 129);"></path><path d="M160,120h20v20h-20Z" style="fill: rgb(195, 229, 129);"></path><path d="M180,120h20v20h-20Z" style="fill: rgb(190, 227, 127);"></path><path d="M200,120h20v20h-20Z" style="fill: rgb(144, 207, 106);"></path><path d="M220,120h20v20h-20Z" style="fill: rgb(133, 203, 104);"></path><path d="M240,120h20v20h-20Z" style="fill: rgb(133, 203, 104);"></path><path d="M260,120h20v20h-20Z" style="fill: rgb(133, 203, 104);"></path><path d="M280,120h20v20h-20Z" style="fill: rgb(106, 191, 98);"></path><path d="M300,120h20v20h-20Z" style="fill: rgb(106, 191, 98);"></path><path d="M320,120h20v20h-20Z" style="fill: rgb(106, 191, 98);"></path><path d="M340,120h20v20h-20Z" style="fill: rgb(106, 191, 98);"></path><path d="M360,120h20v20h-20Z" style="fill: rgb(106, 191, 98);"></path><path d="M380,120h20v20h-20Z" style="fill: rgb(106, 191, 98);"></path><path d="M400,120h20v20h-20Z" style="fill: rgb(106, 191, 98);"></path><path d="M420,120h20v20h-20Z" style="fill: rgb(106, 191, 98);"></path><path d="M440,120h20v20h-20Z" style="fill: rgb(106, 191, 98);"></path><path d="M460,120h20v20h-20Z" style="fill: rgb(106, 191, 98);"></path><path d="M0,60h20v20h-20Z" style="fill: rgb(253, 229, 151);"></path><path d="M20,60h20v20h-20Z" style="fill: rgb(252, 229, 151);"></path><path d="M40,60h20v20h-20Z" style="fill: rgb(252, 229, 151);"></path><path d="M60,60h20v20h-20Z" style="fill: rgb(252, 229, 152);"></path><path d="M80,60h20v20h-20Z" style="fill: rgb(252, 230, 152);"></path><path d="M100,60h20v20h-20Z" style="fill: rgb(252, 230, 152);"></path><path d="M120,60h20v20h-20Z" style="fill: rgb(252, 230, 152);"></path><path d="M140,60h20v20h-20Z" style="fill: rgb(250, 241, 166);"></path><path d="M160,60h20v20h-20Z" style="fill: rgb(250, 241, 167);"></path><path d="M180,60h20v20h-20Z" style="fill: rgb(250, 241, 167);"></path><path d="M200,60h20v20h-20Z" style="fill: rgb(250, 242, 167);"></path><path d="M220,60h20v20h-20Z" style="fill: rgb(250, 242, 167);"></path><path d="M240,60h20v20h-20Z" style="fill: rgb(252, 231, 154);"></path><path d="M260,60h20v20h-20Z" style="fill: rgb(254, 220, 140);"></path><path d="M280,60h20v20h-20Z" style="fill: rgb(254, 220, 140);"></path><path d="M300,60h20v20h-20Z" style="fill: rgb(254, 221, 141);"></path><path d="M320,60h20v20h-20Z" style="fill: rgb(254, 221, 141);"></path><path d="M340,60h20v20h-20Z" style="fill: rgb(254, 221, 141);"></path><path d="M360,60h20v20h-20Z" style="fill: rgb(254, 221, 142);"></path><path d="M380,60h20v20h-20Z" style="fill: rgb(254, 222, 142);"></path><path d="M400,60h20v20h-20Z" style="fill: rgb(254, 222, 142);"></path><path d="M420,60h20v20h-20Z" style="fill: rgb(254, 222, 142);"></path><path d="M440,60h20v20h-20Z" style="fill: rgb(254, 222, 143);"></path><path d="M460,60h20v20h-20Z" style="fill: rgb(254, 222, 143);"></path><path d="M0,20h20v20h-20Z" style="fill: rgb(251, 236, 160);"></path><path d="M20,20h20v20h-20Z" style="fill: rgb(251, 236, 160);"></path><path d="M40,20h20v20h-20Z" style="fill: rgb(251, 236, 160);"></path><path d="M60,20h20v20h-20Z" style="fill: rgb(251, 236, 160);"></path><path d="M80,20h20v20h-20Z" style="fill: rgb(251, 236, 160);"></path><path d="M100,20h20v20h-20Z" style="fill: rgb(251, 236, 160);"></path><path d="M120,20h20v20h-20Z" style="fill: rgb(251, 236, 160);"></path><path d="M140,20h20v20h-20Z" style="fill: rgb(251, 236, 160);"></path><path d="M160,20h20v20h-20Z" style="fill: rgb(251, 236, 160);"></path><path d="M180,20h20v20h-20Z" style="fill: rgb(251, 238, 162);"></path><path d="M200,20h20v20h-20Z" style="fill: rgb(247, 246, 172);"></path><path d="M220,20h20v20h-20Z" style="fill: rgb(247, 246, 172);"></path><path d="M240,20h20v20h-20Z" style="fill: rgb(251, 236, 160);"></path><path d="M260,20h20v20h-20Z" style="fill: rgb(251, 236, 160);"></path><path d="M280,20h20v20h-20Z" style="fill: rgb(251, 236, 160);"></path><path d="M300,20h20v20h-20Z" style="fill: rgb(251, 236, 160);"></path><path d="M320,20h20v20h-20Z" style="fill: rgb(251, 236, 160);"></path><path d="M340,20h20v20h-20Z" style="fill: rgb(251, 236, 160);"></path><path d="M360,20h20v20h-20Z" style="fill: rgb(251, 236, 160);"></path><path d="M380,20h20v20h-20Z" style="fill: rgb(251, 236, 160);"></path><path d="M400,20h20v20h-20Z" style="fill: rgb(251, 236, 160);"></path><path d="M420,20h20v20h-20Z" style="fill: rgb(251, 236, 160);"></path><path d="M440,20h20v20h-20Z" style="fill: rgb(251, 236, 160);"></path><path d="M460,20h20v20h-20Z" style="fill: rgb(251, 236, 160);"></path><path d="M0,40h20v20h-20Z" style="fill: rgb(251, 236, 160);"></path><path d="M20,40h20v20h-20Z" style="fill: rgb(251, 236, 160);"></path><path d="M40,40h20v20h-20Z" style="fill: rgb(251, 236, 160);"></path><path d="M60,40h20v20h-20Z" style="fill: rgb(251, 236, 160);"></path><path d="M80,40h20v20h-20Z" style="fill: rgb(251, 236, 160);"></path><path d="M100,40h20v20h-20Z" style="fill: rgb(251, 237, 161);"></path><path d="M120,40h20v20h-20Z" style="fill: rgb(251, 237, 161);"></path><path d="M140,40h20v20h-20Z" style="fill: rgb(251, 237, 161);"></path><path d="M160,40h20v20h-20Z" style="fill: rgb(251, 237, 161);"></path><path d="M180,40h20v20h-20Z" style="fill: rgb(251, 237, 161);"></path><path d="M200,40h20v20h-20Z" style="fill: rgb(251, 237, 162);"></path><path d="M220,40h20v20h-20Z" style="fill: rgb(251, 237, 162);"></path><path d="M240,40h20v20h-20Z" style="fill: rgb(254, 211, 133);"></path><path d="M260,40h20v20h-20Z" style="fill: rgb(254, 212, 133);"></path><path d="M280,40h20v20h-20Z" style="fill: rgb(253, 227, 149);"></path><path d="M300,40h20v20h-20Z" style="fill: rgb(253, 227, 149);"></path><path d="M320,40h20v20h-20Z" style="fill: rgb(253, 227, 149);"></path><path d="M340,40h20v20h-20Z" style="fill: rgb(253, 228, 149);"></path><path d="M360,40h20v20h-20Z" style="fill: rgb(253, 228, 149);"></path><path d="M380,40h20v20h-20Z" style="fill: rgb(253, 228, 150);"></path><path d="M400,40h20v20h-20Z" style="fill: rgb(253, 228, 150);"></path><path d="M420,40h20v20h-20Z" style="fill: rgb(253, 228, 150);"></path><path d="M440,40h20v20h-20Z" style="fill: rgb(253, 228, 150);"></path><path d="M460,40h20v20h-20Z" style="fill: rgb(253, 228, 150);"></path></g><g class="mark-group role-legend"><g transform="translate(498,0)"><path class="background" d="M0,0h35v156h-35Z" style="pointer-events: none; fill: none;"></path><g><g class="mark-group role-legend-entry"><g transform="translate(0,16)"><path class="background" d="M0,0h0v0h0Z" style="pointer-events: none; fill: none;"></path><g><g class="mark-rect role-legend-gradient" style="pointer-events: none;"><path d="M0,0h16v140h-16Z" style="fill: url(#gradient_0); stroke: #ddd; stroke-width: 0; opacity: 1;"></path></g><g class="mark-text role-legend-label" style="pointer-events: none;"><text text-anchor="start" transform="translate(18,138)" style="font-family: sans-serif; font-size: 10px; fill: #000; opacity: 1;">-2</text><text text-anchor="start" transform="translate(18,73)" style="font-family: sans-serif; font-size: 10px; fill: #000; opacity: 1;">0</text><text text-anchor="start" transform="translate(18,8)" style="font-family: sans-serif; font-size: 10px; fill: #000; opacity: 1;">2</text></g></g></g></g><g class="mark-text role-legend-title" style="pointer-events: none;"><text text-anchor="start" transform="translate(0,9)" style="font-family: sans-serif; font-size: 11px; font-weight: bold; fill: #000; opacity: 1;">Cent</text></g></g></g></g><g class="mark-text role-title" style="pointer-events: none;"><text text-anchor="middle" transform="translate(240,-7)" style="font-family: sans-serif; font-size: 13px; font-weight: bold; fill: #000; opacity: 1;">Difference in gasoline price - premium gas, cheapest gas station</text></g><g class="mark-group role-axis"><g transform="translate(0.5,140.5)"><path class="background" d="M0,0h0v0h0Z" style="pointer-events: none; fill: none;"></path><g><g class="mark-rule role-axis-tick" style="pointer-events: none;"><line transform="translate(9,0)" x2="0" y2="5" style="fill: none; stroke: #888; stroke-width: 1; opacity: 1;"></line><line transform="translate(29,0)" x2="0" y2="5" style="fill: none; stroke: #888; stroke-width: 1; opacity: 1;"></line><line transform="translate(49,0)" x2="0" y2="5" style="fill: none; stroke: #888; stroke-width: 1; opacity: 1;"></line><line transform="translate(69,0)" x2="0" y2="5" style="fill: none; stroke: #888; stroke-width: 1; opacity: 1;"></line><line transform="translate(89,0)" x2="0" y2="5" style="fill: none; stroke: #888; stroke-width: 1; opacity: 1;"></line><line transform="translate(109,0)" x2="0" y2="5" style="fill: none; stroke: #888; stroke-width: 1; opacity: 1;"></line><line transform="translate(129,0)" x2="0" y2="5" style="fill: none; stroke: #888; stroke-width: 1; opacity: 1;"></line><line transform="translate(149,0)" x2="0" y2="5" style="fill: none; stroke: #888; stroke-width: 1; opacity: 1;"></line><line transform="translate(169,0)" x2="0" y2="5" style="fill: none; stroke: #888; stroke-width: 1; opacity: 1;"></line><line transform="translate(189,0)" x2="0" y2="5" style="fill: none; stroke: #888; stroke-width: 1; opacity: 1;"></line><line transform="translate(209,0)" x2="0" y2="5" style="fill: none; stroke: #888; stroke-width: 1; opacity: 1;"></line><line transform="translate(229,0)" x2="0" y2="5" style="fill: none; stroke: #888; stroke-width: 1; opacity: 1;"></line><line transform="translate(249,0)" x2="0" y2="5" style="fill: none; stroke: #888; stroke-width: 1; opacity: 1;"></line><line transform="translate(269,0)" x2="0" y2="5" style="fill: none; stroke: #888; stroke-width: 1; opacity: 1;"></line><line transform="translate(289,0)" x2="0" y2="5" style="fill: none; stroke: #888; stroke-width: 1; opacity: 1;"></line><line transform="translate(309,0)" x2="0" y2="5" style="fill: none; stroke: #888; stroke-width: 1; opacity: 1;"></line><line transform="translate(329,0)" x2="0" y2="5" style="fill: none; stroke: #888; stroke-width: 1; opacity: 1;"></line><line transform="translate(349,0)" x2="0" y2="5" style="fill: none; stroke: #888; stroke-width: 1; opacity: 1;"></line><line transform="translate(369,0)" x2="0" y2="5" style="fill: none; stroke: #888; stroke-width: 1; opacity: 1;"></line><line transform="translate(389,0)" x2="0" y2="5" style="fill: none; stroke: #888; stroke-width: 1; opacity: 1;"></line><line transform="translate(409,0)" x2="0" y2="5" style="fill: none; stroke: #888; stroke-width: 1; opacity: 1;"></line><line transform="translate(429,0)" x2="0" y2="5" style="fill: none; stroke: #888; stroke-width: 1; opacity: 1;"></line><line transform="translate(449,0)" x2="0" y2="5" style="fill: none; stroke: #888; stroke-width: 1; opacity: 1;"></line><line transform="translate(469,0)" x2="0" y2="5" style="fill: none; stroke: #888; stroke-width: 1; opacity: 1;"></line></g><g class="mark-text role-axis-label" style="pointer-events: none;"><text text-anchor="end" transform="translate(9,7) rotate(270) translate(0,3)" style="font-family: sans-serif; font-size: 10px; fill: #000; opacity: 1;">0</text><text text-anchor="end" transform="translate(29,7) rotate(270) translate(0,3)" style="font-family: sans-serif; font-size: 10px; fill: #000; opacity: 1;">1</text><text text-anchor="end" transform="translate(49,7) rotate(270) translate(0,3)" style="font-family: sans-serif; font-size: 10px; fill: #000; opacity: 1;">2</text><text text-anchor="end" transform="translate(69,7) rotate(270) translate(0,3)" style="font-family: sans-serif; font-size: 10px; fill: #000; opacity: 1;">3</text><text text-anchor="end" transform="translate(89,7) rotate(270) translate(0,3)" style="font-family: sans-serif; font-size: 10px; fill: #000; opacity: 1;">4</text><text text-anchor="end" transform="translate(109,7) rotate(270) translate(0,3)" style="font-family: sans-serif; font-size: 10px; fill: #000; opacity: 1;">5</text><text text-anchor="end" transform="translate(129,7) rotate(270) translate(0,3)" style="font-family: sans-serif; font-size: 10px; fill: #000; opacity: 1;">6</text><text text-anchor="end" transform="translate(149,7) rotate(270) translate(0,3)" style="font-family: sans-serif; font-size: 10px; fill: #000; opacity: 1;">7</text><text text-anchor="end" transform="translate(169,7) rotate(270) translate(0,3)" style="font-family: sans-serif; font-size: 10px; fill: #000; opacity: 1;">8</text><text text-anchor="end" transform="translate(189,7) rotate(270) translate(0,3)" style="font-family: sans-serif; font-size: 10px; fill: #000; opacity: 1;">9</text><text text-anchor="end" transform="translate(209,7) rotate(270) translate(0,3)" style="font-family: sans-serif; font-size: 10px; fill: #000; opacity: 1;">10</text><text text-anchor="end" transform="translate(229,7) rotate(270) translate(0,3)" style="font-family: sans-serif; font-size: 10px; fill: #000; opacity: 1;">11</text><text text-anchor="end" transform="translate(249,7) rotate(270) translate(0,3)" style="font-family: sans-serif; font-size: 10px; fill: #000; opacity: 1;">12</text><text text-anchor="end" transform="translate(269,7) rotate(270) translate(0,3)" style="font-family: sans-serif; font-size: 10px; fill: #000; opacity: 1;">13</text><text text-anchor="end" transform="translate(289,7) rotate(270) translate(0,3)" style="font-family: sans-serif; font-size: 10px; fill: #000; opacity: 1;">14</text><text text-anchor="end" transform="translate(309,7) rotate(270) translate(0,3)" style="font-family: sans-serif; font-size: 10px; fill: #000; opacity: 1;">15</text><text text-anchor="end" transform="translate(329,7) rotate(270) translate(0,3)" style="font-family: sans-serif; font-size: 10px; fill: #000; opacity: 1;">16</text><text text-anchor="end" transform="translate(349,7) rotate(270) translate(0,3)" style="font-family: sans-serif; font-size: 10px; fill: #000; opacity: 1;">17</text><text text-anchor="end" transform="translate(369,7) rotate(270) translate(0,3)" style="font-family: sans-serif; font-size: 10px; fill: #000; opacity: 1;">18</text><text text-anchor="end" transform="translate(389,7) rotate(270) translate(0,3)" style="font-family: sans-serif; font-size: 10px; fill: #000; opacity: 1;">19</text><text text-anchor="end" transform="translate(409,7) rotate(270) translate(0,3)" style="font-family: sans-serif; font-size: 10px; fill: #000; opacity: 1;">20</text><text text-anchor="end" transform="translate(429,7) rotate(270) translate(0,3)" style="font-family: sans-serif; font-size: 10px; fill: #000; opacity: 1;">21</text><text text-anchor="end" transform="translate(449,7) rotate(270) translate(0,3)" style="font-family: sans-serif; font-size: 10px; fill: #000; opacity: 1;">22</text><text text-anchor="end" transform="translate(469,7) rotate(270) translate(0,3)" style="font-family: sans-serif; font-size: 10px; fill: #000; opacity: 1;">23</text></g><g class="mark-rule role-axis-domain" style="pointer-events: none;"><line transform="translate(0,0)" x2="480" y2="0" style="fill: none; stroke: #888; stroke-width: 1; opacity: 1;"></line></g><g class="mark-text role-axis-title" style="pointer-events: none;"><text text-anchor="middle" transform="translate(240,36)" style="font-family: sans-serif; font-size: 11px; font-weight: bold; fill: #000; opacity: 1;">Hour</text></g></g></g></g><g class="mark-group role-axis"><g transform="translate(0.5,0.5)"><path class="background" d="M0,0h0v0h0Z" style="pointer-events: none; fill: none;"></path><g><g class="mark-rule role-axis-tick" style="pointer-events: none;"><line transform="translate(0,9)" x2="-5" y2="0" style="fill: none; stroke: #888; stroke-width: 1; opacity: 1;"></line><line transform="translate(0,29)" x2="-5" y2="0" style="fill: none; stroke: #888; stroke-width: 1; opacity: 1;"></line><line transform="translate(0,49)" x2="-5" y2="0" style="fill: none; stroke: #888; stroke-width: 1; opacity: 1;"></line><line transform="translate(0,69)" x2="-5" y2="0" style="fill: none; stroke: #888; stroke-width: 1; opacity: 1;"></line><line transform="translate(0,89)" x2="-5" y2="0" style="fill: none; stroke: #888; stroke-width: 1; opacity: 1;"></line><line transform="translate(0,109)" x2="-5" y2="0" style="fill: none; stroke: #888; stroke-width: 1; opacity: 1;"></line><line transform="translate(0,129)" x2="-5" y2="0" style="fill: none; stroke: #888; stroke-width: 1; opacity: 1;"></line></g><g class="mark-text role-axis-label" style="pointer-events: none;"><text text-anchor="end" transform="translate(-7,12)" style="font-family: sans-serif; font-size: 10px; fill: #000; opacity: 1;">Monday</text><text text-anchor="end" transform="translate(-7,32)" style="font-family: sans-serif; font-size: 10px; fill: #000; opacity: 1;">Tuesday</text><text text-anchor="end" transform="translate(-7,52)" style="font-family: sans-serif; font-size: 10px; fill: #000; opacity: 1;">Wednesday</text><text text-anchor="end" transform="translate(-7,72)" style="font-family: sans-serif; font-size: 10px; fill: #000; opacity: 1;">Thursday</text><text text-anchor="end" transform="translate(-7,92)" style="font-family: sans-serif; font-size: 10px; fill: #000; opacity: 1;">Friday</text><text text-anchor="end" transform="translate(-7,112)" style="font-family: sans-serif; font-size: 10px; fill: #000; opacity: 1;">Saturday</text><text text-anchor="end" transform="translate(-7,132)" style="font-family: sans-serif; font-size: 10px; fill: #000; opacity: 1;">Sunday</text></g><g class="mark-rule role-axis-domain" style="pointer-events: none;"><line transform="translate(0,0)" x2="0" y2="140" style="fill: none; stroke: #888; stroke-width: 1; opacity: 1;"></line></g><g class="mark-text role-axis-title" style="pointer-events: none;"><text text-anchor="middle" transform="translate(-83,70) rotate(-90) translate(0,-2)" style="font-family: sans-serif; font-size: 11px; font-weight: bold; fill: #000; opacity: 1;">Day of week</text></g></g></g></g></g></g></g></g></svg>